<?xml version="1.0" encoding="UTF-8"?>
<svg id="uuid-3fd1ae59-dcf0-4e85-b22e-10428d4f5555" data-name="Layer 2" xmlns="http://www.w3.org/2000/svg" xmlns:xlink="http://www.w3.org/1999/xlink" viewBox="0 0 64 64">
  <defs>
    <style>
      .uuid-558e971a-61d6-48b9-b8bd-66287175b195 {
        fill: #fff;
      }

      .uuid-ab941a0c-8d62-4728-8341-a0415836aefc {
        fill: none;
      }

      .uuid-541e758e-a671-46ae-8929-62387260b5aa {
        clip-path: url(#uuid-d246b607-c3bf-4441-ac08-49edc90b9f61);
      }

      .uuid-97cc4325-e016-44cc-930d-0bd95ee33651 {
        fill: #231f20;
      }
    </style>
    <clipPath id="uuid-d246b607-c3bf-4441-ac08-49edc90b9f61">
      <rect class="uuid-ab941a0c-8d62-4728-8341-a0415836aefc" width="64" height="64"/>
    </clipPath>
  </defs>
  <g id="uuid-939dcb15-b8bb-4c56-b702-1074e694ae38" data-name="uuid-287d7b77-788d-421d-ae46-4cb33e3fee21">
    <g class="uuid-541e758e-a671-46ae-8929-62387260b5aa">
      <g id="uuid-22619900-4dc2-4eb6-8025-ca6285159c08" data-name="uuid-6b02ae61-20b7-4a9c-aaa4-3ceed8d82410">
        <g>
          <rect class="uuid-97cc4325-e016-44cc-930d-0bd95ee33651" x="-5.88" y="-4.64" width="79.18" height="71.59"/>
          <path class="uuid-558e971a-61d6-48b9-b8bd-66287175b195" d="m39.69,91.46h-2.86c0-11.33-4.43-17.23-8.71-22.93-4.14-5.51-8.43-11.21-8.43-21.36h2.86c0,9.19,3.81,14.27,7.86,19.64,4.57,6.07,9.29,12.36,9.29,24.64Z"/>
          <path class="uuid-558e971a-61d6-48b9-b8bd-66287175b195" d="m-10.31,68.6h-2.86v-11.43C-13.17,30.84-4.57,14.46,11.3,9.9,12.42,5.16,18.13.83,18.85.3l.37-.29h3.33v11.43h-1.43c-25.97.01-31.43,24.87-31.43,45.73v11.43ZM19.69,3.27c-1.59,1.31-3.96,3.61-5.09,5.87,1.63-.29,3.33-.46,5.09-.51V3.27Z"/>
          <polygon class="uuid-558e971a-61d6-48b9-b8bd-66287175b195" points="40.5 21.2 38.88 18.86 58.48 5.39 34.48 14.23 33.48 11.54 60.86 1.46 63.98 1.46 63.98 5.07 40.5 21.2"/>
          <path class="uuid-558e971a-61d6-48b9-b8bd-66287175b195" d="m49.69,55.74h-.54l-.4-.36c-.13-.11-12.61-11.07-24.77-11.07-7.09,0-12.86-5.77-12.86-12.86h2.86c0,5.51,4.49,10,10,10,12.03,0,23.76,9.33,26.21,11.4,2.01-.23,3.61-1.87,3.77-3.9l-15.51-27.51c-.07-.13-5.44-9.99-13.04-9.99v-2.86c9.33,0,15.3,11,15.54,11.47l15.89,28.16v.37c0,3.94-3.2,7.14-7.14,7.14Z"/>
          <rect class="uuid-558e971a-61d6-48b9-b8bd-66287175b195" x="31.12" y="24.31" width="2.86" height="2.86"/>
        </g>
      </g>
    </g>
  </g>
</svg>