<?xml version="1.0" encoding="UTF-8"?>
<svg id="uuid-2d17a3d3-c6ad-49c3-8c4c-bd81a645491b" data-name="Layer 1" xmlns="http://www.w3.org/2000/svg" xmlns:xlink="http://www.w3.org/1999/xlink" viewBox="0 0 566.04 646.14">
  <defs>
    <style>
      .uuid-aac5c9e2-c159-4c46-8749-4e192b4e7f94 {
        fill: url(#uuid-f08831f9-0a40-429b-8ede-ae5ec81b5896);
      }

      .uuid-a6d3311b-0d41-43f1-8bed-f24217f5647e {
        fill: url(#uuid-be60d37c-54d8-46d5-a0bc-5001bcfa4022);
      }

      .uuid-a4db42ce-2401-41be-9a1c-3d74b5fbf806 {
        fill: url(#uuid-8d96e1e7-0419-462b-a51e-af922894df1a);
      }

      .uuid-7e17e07b-1441-4ad3-87ff-ef7ccda256ef {
        fill: url(#uuid-06a03260-b854-4947-99d1-449c3d80ee6b);
      }

      .uuid-bfcac778-18b8-45dd-9b78-ecbe84125010 {
        fill: url(#uuid-66dac989-ad88-43cc-b10f-f6f868a6b2e3);
      }
    </style>
    <linearGradient id="uuid-66dac989-ad88-43cc-b10f-f6f868a6b2e3" x1="-676.99" y1="863.18" x2="-675.99" y2="863.18" gradientTransform="translate(171346.02 -167345.24) rotate(-96.34) scale(218.73 -218.73)" gradientUnits="userSpaceOnUse">
      <stop offset="0" stop-color="#fff"/>
      <stop offset=".08" stop-color="#fff"/>
      <stop offset=".75" stop-color="#fff"/>
      <stop offset="1" stop-color="#fff"/>
    </linearGradient>
    <linearGradient id="uuid-8d96e1e7-0419-462b-a51e-af922894df1a" x1="-676.99" y1="863.18" x2="-675.99" y2="863.18" gradientTransform="translate(173346.27 221239.21) scale(256.03 -256.03)" gradientUnits="userSpaceOnUse">
      <stop offset="0" stop-color="#fff"/>
      <stop offset="1" stop-color="#fff"/>
    </linearGradient>
    <linearGradient id="uuid-06a03260-b854-4947-99d1-449c3d80ee6b" x1="-676.99" y1="863.18" x2="-675.99" y2="863.18" gradientTransform="translate(254066.02 323900.61) scale(375.01 -375.01)" gradientUnits="userSpaceOnUse">
      <stop offset="0" stop-color="#fff"/>
      <stop offset="1" stop-color="#fff"/>
    </linearGradient>
    <linearGradient id="uuid-f08831f9-0a40-429b-8ede-ae5ec81b5896" x1="-676.99" y1="863.18" x2="-675.99" y2="863.18" gradientTransform="translate(98563.24 125839.16) scale(145.22 -145.22)" gradientUnits="userSpaceOnUse">
      <stop offset="0" stop-color="#fff"/>
      <stop offset="1" stop-color="#fff"/>
    </linearGradient>
    <linearGradient id="uuid-be60d37c-54d8-46d5-a0bc-5001bcfa4022" x1="-676.99" y1="863.18" x2="-675.99" y2="863.18" gradientTransform="translate(4734.43 -36029.53) rotate(-135) scale(33.26 -33.26)" gradientUnits="userSpaceOnUse">
      <stop offset="0" stop-color="#fff"/>
      <stop offset=".95" stop-color="#fff"/>
      <stop offset="1" stop-color="#fff"/>
    </linearGradient>
  </defs>
  <path class="uuid-bfcac778-18b8-45dd-9b78-ecbe84125010" d="m66.17,576.52v47.75c0,.24-.1.47-.28.63l-.91.84c-.16.15-.37.23-.58.23h-17.41c-.47,0-.86.38-.86.86v17.54c0,.27-.12.52-.34.68l-.86.67c-.15.12-.33.18-.52.18h-21.53c-.26,0-.51-.12-.67-.33l-1.21-1.53c-.12-.15-.18-.34-.18-.53v-16.46c0-.47-.38-.86-.86-.86H2.48c-.24,0-.47-.1-.64-.28l-1.61-1.78c-.14-.16-.22-.36-.22-.58v-19.54c0-.25.11-.48.29-.64l2.33-2.06c.16-.14.36-.22.57-.22l36.9.21c.48,0,.86-.38.86-.86v-7.66c0-.31-.17-.6-.45-.75L.94,572c-1.05-.85-.94-2.38-.94-2.69v-46.52c0-.13.03-.26.08-.37.18-.35.5-.85,1.06-1.3.82-.66,1.68-.8,2.05-.84h16.98c.47,0,.86-.38.86-.86v-16.1c.01-.16.09-.95.77-1.54.58-.51,1.24-.55,1.43-.55h20.7c.2.04.83.17,1.35.73.51.54.61,1.16.63,1.36.07,5.55.13,10.47.2,16.02,0,.47.43.87.9.87l16.93.02c.16-.02.82.08,1.55.7.59.5.64,1.57.68,1.77v20.7c0,.28-.13.53-.35.7l-2.61,1.89c-.15.11-.32.16-.5.16l-35.65.11c-.47,0-.85.38-.86.85l-.09,7.21c0,.33.18.63.47.78l38.69,19.78c.16.08.3.22.38.38l.44.89c.06.12.09.25.09.38Z"/>
  <path class="uuid-a4db42ce-2401-41be-9a1c-3d74b5fbf806" d="m275.79,3.54c0-1.96-1.6-3.55-3.56-3.54-7.34.03-14.68.06-22.02.09-1.31,0-2.59.4-3.66,1.16-15.51,10.95-34.8,27.77-48.5,53.18-1.9,3.54-3.22,7.25-4.73,10.68-1.09,2.46-3.14,4.36-5.69,5.22-14.41,4.85-34.4,12.87-54.42,26.87-54.96,38.43-75.85,93.22-85.21,118.79-12.66,34.57-18.56,63.54-23.34,99.96-3.52,26.86-3.98,50.86-4.13,64.29-.37,34.51-.76,68.91-.52,103.42,0,.23.09.45.25.62l1.51,1.58c.17.18.41.28.65.28h21.23c.24,0,.47-.09.64-.26l1.53-1.5c.17-.17.27-.4.27-.65v-80.32c-.5-32.55,1.23-80.07,12.47-132.06,0,0,13.65-63.11,40.01-101.68.98-1.44,1.98-2.84,1.98-2.84,6.09-8.55,19.27-26.76,40.91-43.33,39.88-34.15,94.83-38.18,131-38.32.98,0,1.91-.4,2.6-1.12.58-.61.91-1.42.9-2.26-.06-26.09-.12-52.19-.18-78.28Zm-25.78,54.64c-.03.25-.07.47-.23.68-.13.17-.4.38-.4.38,0,0-.99.1-2.26.23-2.22.22-3.73.37-3.99.4-5.96.59-11.94.94-17.89,1.6-.11.01-.45.05-.53-.09-.05-.09.03-.23.12-.34,1.14-1.75,2.78-4.18,4.85-7.01,1.25-1.7,2.09-2.78,3.2-4.22,0,0,8.71-11.28,15.72-16.17.19-.13.62-.42,1.01-.29.95.32.89,2.85.87,4.27-.24,12.71-.37,19.07-.35,19.26.02.31-.03.64-.12,1.3Z"/>
  <path class="uuid-7e17e07b-1441-4ad3-87ff-ef7ccda256ef" d="m565.67,10.65c-.46-.75-1.28-1.21-2.16-1.21h-22.98c-.3,0-.6.05-.88.16-62.31,23.01-124.62,46.01-186.93,69.02-.8.29-1.68.17-2.37-.33-5.38-3.88-12.73-8.39-22.03-12.1-9.33-3.72-17.79-5.51-24.4-6.4-.85-.11-2.23-.2-3.08-.18l-6.47.1c-1.3,1.33-2.05,2.1-3.35,3.43.05,6.39.09,12.78.14,19.17,0,1.33,1.04,2.43,2.37,2.51,5.86.34,13.81,1.46,22.58,4.77,6.5,2.45,13.2,6,22.05,12.88,18.47,14.35,32.13,32.17,40.3,44.2l.11.18c37.11,65.78,74.21,131.56,111.32,197.33.19.47.42,1.16.52,2.01,0,0,.13,1.15-.1,2.41-1.34,7.23-7.43,13.49-7.43,13.49-4.44,4.56-9,6.74-11.72,7.05-2.44.28-4.26-.53-4.26-.53-.91-.4-1.56-.92-1.96-1.29-25.36-20.63-48.82-34.94-66.94-44.64-38.06-20.38-63.53-26.32-69.65-27.68-8.9-1.98-16.46-3.11-21.85-3.78-10.51-.66-21.03-1.32-31.54-1.98-3.57-.43-8.05-1.29-13-3.06-4.39-1.57-8.03-3.45-10.86-5.16-5.51-3.04-13.75-8.56-20.93-17.96-12.89-16.88-13.8-35.1-13.8-41.77l-.16-.18c-.46-.49-1.4-.89-2.07-.89-9.81,0-15.98-.17-19.97-.03-.16,0-.67.02-1.24.28-.19.08-.85.4-1.32,1.12-.34.52-.42,1.03-.49,1.39-.06.35-.06.63-.07.75-.03,3.08.04,3.92.04,3.92.11,3.51.46,7.7,1.27,12.38.7,4.01,3.82,20.21,15.26,36.58,15.27,21.83,36.28,30.96,44.83,34.14,1.54.54,3.14,1.07,4.78,1.59,2.91.91,5.73,1.68,8.43,2.33,6.7.33,13.4.66,20.11.99,6.38.46,13.03,1.12,19.9,2.02,2.99.39,5.92.82,8.79,1.28,9.99,2.2,23.22,5.7,38.29,11.4,22.77,8.61,38.69,18.08,50.41,25.13,14.33,8.61,32.44,20.79,51.94,37.51.49.55,1.29,1.32,2.48,1.93.78.4,1.5.62,2.06.74,3.28.02,6.57.04,9.85.06.74-.02,1.52-.07,2.34-.14.67-.06,1.31-.13,1.92-.22,4.92-1.08,16.59-4.31,27.17-14.56,10.86-10.52,14.41-22.45,15.58-27.33.17-.93.31-1.94.41-3.01.07-.72.15-1.75.17-3.35.02-1.55,0-3.83-.25-6.74-.27-1.36-.72-3.05-1.53-4.9,0,0-1.21-2.12-2.47-4.37-33.89-60.29-67.78-120.57-101.67-180.86-.64-1.14-.31-2.58.76-3.32l153.02-106.08c.68-.47,1.09-1.25,1.09-2.08V11.97c0-.47-.13-.93-.37-1.32Zm-120.18,81.27c-15.96,10.94-27.19,18.38-30.29,20.43-7.18,4.75-13.45,8.84-18.49,12.1-.41.1-1.04.19-1.68-.07-.22-.09-.61-.45-1.34-1.19-1.09-1.11-1.82-1.98-1.82-1.98-4.51-5.44-10.24-13.1-10.24-13.1-1.16-1.47-2.1-2.61-2.72-3.35-1.1-1.31-1.87-2.86-2.89-4.23-.16-.22-.51-.68-.39-1.18.14-.6.9-.9,1.18-.99,2.9-1.18,8.18-3.3,14.84-5.83,10.35-3.92,17.87-6.48,20.36-7.34,15.95-5.53,80.66-30.24,84.15-31.69.3-.12,1.43-.61,1.73-.25.13.15.08.41-.03.69-1.16.94-2.92,2.37-5.09,4.07-6.47,5.09-11.66,8.88-47.28,33.91Z"/>
  <path class="uuid-aac5c9e2-c159-4c46-8749-4e192b4e7f94" d="m253.11,330.26h21.5c.48,0,1.15.28,1.49.62l.39.39c.27.4.55,1.27.55,1.78-.17,37.55,9.25,63.41,16.85,78.95,7.48,15.29,17.48,29.3,36.17,55.49,17.18,24.07,16.59,20.84,24.78,33.3,27.01,41.08,35.17,78.92,36.74,86.58,2.68,13.07,5.35,31.94,4.49,55.11-.13,1.87-.91,3.43-3.79,3.66h-18.64c-.38,0-.74-.15-1.01-.42l-1.05-1.05c-.36-.36-.56-.86-.54-1.37,1.07-38.62-7.66-66.77-14.31-83.17-8.07-19.87-18.65-36.16-23.99-44.4-13.23-20.38-17.97-22.47-35.86-48.24-12.78-18.41-20.07-28.9-27.41-45.41-3.05-6.85-10.01-23.51-14.42-46.23-3.32-17.09-4.1-32.01-4.02-43.51.23-1.27.95-1.79,2.09-2.08Z"/>
  <rect class="uuid-a6d3311b-0d41-43f1-8bed-f24217f5647e" x="331.09" y="170.28" width="24.89" height="24.85" rx="2.31" ry="2.31"/>
</svg>